<svg xmlns="http://www.w3.org/2000/svg" xmlns:xlink="http://www.w3.org/1999/xlink" width="200" zoomAndPan="magnify" viewBox="0 0 150 37.5" height="50" preserveAspectRatio="xMidYMid meet" version="1.0"><defs><g/><clipPath id="e1513bac28"><path d="M 3.300781 0.953125 L 38.269531 0.953125 L 38.269531 35.921875 L 3.300781 35.921875 Z M 3.300781 0.953125 " clip-rule="nonzero"/></clipPath><clipPath id="35c56c2a2b"><path d="M 20.785156 0.953125 C 11.128906 0.953125 3.300781 8.78125 3.300781 18.4375 C 3.300781 28.09375 11.128906 35.921875 20.785156 35.921875 C 30.441406 35.921875 38.269531 28.09375 38.269531 18.4375 C 38.269531 8.78125 30.441406 0.953125 20.785156 0.953125 Z M 20.785156 0.953125 " clip-rule="nonzero"/></clipPath></defs><g clip-path="url(#e1513bac28)"><g clip-path="url(#35c56c2a2b)"><path fill="#231f20" d="M 3.300781 0.953125 L 38.269531 0.953125 L 38.269531 35.921875 L 3.300781 35.921875 Z M 3.300781 0.953125 " fill-opacity="1" fill-rule="nonzero"/></g></g><g fill="#ffffff" fill-opacity="1"><g transform="translate(12.667783, 29.835447)"><g><path d="M 17.234375 -23.25 C 17.234375 -22.769531 17.144531 -22.253906 16.96875 -21.703125 C 16.789062 -21.148438 16.566406 -20.59375 16.296875 -20.03125 C 16.035156 -19.46875 15.753906 -18.921875 15.453125 -18.390625 C 15.160156 -17.859375 14.894531 -17.382812 14.65625 -16.96875 C 14.144531 -16.019531 13.632812 -15.066406 13.125 -14.109375 C 12.625 -13.148438 12.085938 -12.195312 11.515625 -11.25 C 11.796875 -10.757812 12.160156 -10.09375 12.609375 -9.25 C 13.066406 -8.414062 13.507812 -7.535156 13.9375 -6.609375 C 14.375 -5.691406 14.75 -4.789062 15.0625 -3.90625 C 15.382812 -3.019531 15.546875 -2.289062 15.546875 -1.71875 C 15.546875 -1.28125 15.425781 -0.867188 15.1875 -0.484375 C 14.945312 -0.0976562 14.570312 0.09375 14.0625 0.09375 C 13.46875 0.09375 12.863281 -0.148438 12.25 -0.640625 C 11.644531 -1.140625 11.070312 -1.726562 10.53125 -2.40625 C 9.988281 -3.09375 9.492188 -3.796875 9.046875 -4.515625 C 8.597656 -5.234375 8.238281 -5.8125 7.96875 -6.25 C 7.59375 -5.769531 7.210938 -5.296875 6.828125 -4.828125 C 6.441406 -4.367188 6.0625 -3.894531 5.6875 -3.40625 C 5.445312 -3.09375 5.15625 -2.722656 4.8125 -2.296875 C 4.46875 -1.867188 4.09375 -1.441406 3.6875 -1.015625 C 3.28125 -0.597656 2.859375 -0.25 2.421875 0.03125 C 1.992188 0.320312 1.582031 0.46875 1.1875 0.46875 C 0.90625 0.46875 0.671875 0.40625 0.484375 0.28125 C 0.296875 0.15625 0.140625 -0.00390625 0.015625 -0.203125 C -0.109375 -0.398438 -0.195312 -0.617188 -0.25 -0.859375 C -0.300781 -1.097656 -0.328125 -1.34375 -0.328125 -1.59375 C -0.328125 -2.269531 -0.210938 -2.957031 0.015625 -3.65625 C 0.242188 -4.351562 0.515625 -5 0.828125 -5.59375 C 1.910156 -7.882812 3.046875 -10.15625 4.234375 -12.40625 C 3.992188 -12.914062 3.691406 -13.617188 3.328125 -14.515625 C 2.960938 -15.421875 2.601562 -16.367188 2.25 -17.359375 C 1.894531 -18.359375 1.585938 -19.328125 1.328125 -20.265625 C 1.078125 -21.203125 0.953125 -21.957031 0.953125 -22.53125 C 0.953125 -23.164062 1.109375 -23.726562 1.421875 -24.21875 C 1.734375 -24.71875 2.238281 -24.96875 2.9375 -24.96875 C 3.34375 -24.96875 3.710938 -24.863281 4.046875 -24.65625 C 4.390625 -24.445312 4.703125 -24.179688 4.984375 -23.859375 C 5.273438 -23.546875 5.53125 -23.207031 5.75 -22.84375 C 5.976562 -22.476562 6.15625 -22.140625 6.28125 -21.828125 C 6.65625 -21.035156 7.03125 -20.25 7.40625 -19.46875 C 7.78125 -18.6875 8.132812 -17.875 8.46875 -17.03125 C 8.644531 -17.34375 8.882812 -17.765625 9.1875 -18.296875 C 9.5 -18.828125 9.851562 -19.390625 10.25 -19.984375 C 10.644531 -20.578125 11.070312 -21.179688 11.53125 -21.796875 C 12 -22.421875 12.476562 -22.976562 12.96875 -23.46875 C 13.457031 -23.96875 13.945312 -24.375 14.4375 -24.6875 C 14.9375 -25.007812 15.40625 -25.171875 15.84375 -25.171875 C 16.332031 -25.171875 16.6875 -24.945312 16.90625 -24.5 C 17.125 -24.0625 17.234375 -23.644531 17.234375 -23.25 Z M 17.234375 -23.25 "/></g></g></g><g fill="#000000" fill-opacity="1"><g transform="translate(40.148286, 23.800341)"><g><path d="M 5.265625 -9.125 C 2.609375 -9.125 1.015625 -8.078125 0.609375 -6.3125 L 3.796875 -6.015625 C 3.890625 -6.671875 4.34375 -7.015625 5.15625 -7.015625 C 5.9375 -7.015625 6.21875 -6.765625 6.21875 -5.921875 L 6.21875 -5.828125 C 3.9375 -5.6875 2.390625 -5.3125 1.578125 -4.71875 C 0.75 -4.125 0.34375 -3.390625 0.34375 -2.515625 C 0.34375 -0.875 1.640625 0.171875 3.46875 0.171875 C 4.671875 0.171875 5.6875 -0.203125 6.390625 -1.25 C 6.390625 -0.734375 6.4375 -0.375 6.515625 0 L 9.859375 0 C 9.609375 -0.609375 9.578125 -1.171875 9.578125 -1.859375 L 9.578125 -6.140625 C 9.578125 -8.3125 7.890625 -9.125 5.265625 -9.125 Z M 3.96875 -2.75 C 3.96875 -3.59375 4.796875 -4.046875 6.21875 -4.1875 L 6.21875 -3.765625 C 6.21875 -2.140625 5.5625 -1.921875 4.875 -1.921875 C 4.328125 -1.921875 3.96875 -2.171875 3.96875 -2.75 Z M 3.96875 -2.75 "/></g></g></g><g fill="#000000" fill-opacity="1"><g transform="translate(49.59788, 23.800341)"><g><path d="M 0.171875 -8.9375 L 3.515625 0 L 6.140625 0 L 9.421875 -8.9375 L 6.90625 -8.9375 L 5.34375 -4.234375 L 3.796875 -8.9375 Z M 0.171875 -8.9375 "/></g></g></g><g fill="#000000" fill-opacity="1"><g transform="translate(58.347503, 23.800341)"><g><path d="M 0.828125 -12.1875 L 0.828125 -9.796875 L 4.28125 -9.796875 L 4.28125 -12.1875 Z M 0.828125 -8.9375 L 0.828125 0 L 4.28125 0 L 4.28125 -8.9375 Z M 0.828125 -8.9375 "/></g></g></g><g fill="#000000" fill-opacity="1"><g transform="translate(62.897308, 23.800341)"><g/></g></g><g fill="#000000" fill-opacity="1"><g transform="translate(67.447113, 23.800341)"><g><path d="M 0.921875 -12 L 0.921875 0 L 5.828125 0 C 9.390625 0 11.609375 -2.640625 11.609375 -5.984375 C 11.609375 -8.4375 10.390625 -10.359375 8.734375 -11.3125 C 7.90625 -11.78125 6.84375 -12 5.5625 -12 Z M 4.625 -9.28125 L 5.5 -9.28125 C 7.09375 -9.28125 7.75 -7.703125 7.75 -6.078125 C 7.75 -4.109375 6.859375 -2.765625 5.59375 -2.765625 L 4.625 -2.765625 Z M 4.625 -9.28125 "/></g></g></g><g fill="#000000" fill-opacity="1"><g transform="translate(78.646632, 23.800341)"><g><path d="M 5.28125 -9.125 C 2.453125 -9.125 0.4375 -7.1875 0.4375 -4.34375 C 0.4375 -1.890625 2.171875 0.171875 5.421875 0.171875 C 7.84375 0.171875 9.59375 -1 10.078125 -3 L 6.8125 -3.203125 C 6.671875 -2.421875 6.21875 -2.125 5.4375 -2.125 C 4.53125 -2.125 4.078125 -2.640625 4.078125 -3.78125 L 10.078125 -3.78125 L 10.078125 -4.1875 C 10.078125 -7.390625 8.109375 -9.125 5.28125 -9.125 Z M 4.078125 -5.53125 C 4.09375 -6.53125 4.546875 -7.0625 5.3125 -7.0625 C 6.171875 -7.0625 6.578125 -6.5625 6.578125 -5.53125 Z M 4.078125 -5.53125 "/></g></g></g><g fill="#000000" fill-opacity="1"><g transform="translate(88.446209, 23.800341)"><g><path d="M 0.171875 -8.9375 L 3.515625 0 L 6.140625 0 L 9.421875 -8.9375 L 6.90625 -8.9375 L 5.34375 -4.234375 L 3.796875 -8.9375 Z M 0.171875 -8.9375 "/></g></g></g><g fill="#000000" fill-opacity="1"><g transform="translate(97.195831, 23.800341)"><g><path d="M 5.28125 -9.125 C 2.453125 -9.125 0.4375 -7.1875 0.4375 -4.34375 C 0.4375 -1.890625 2.171875 0.171875 5.421875 0.171875 C 7.84375 0.171875 9.59375 -1 10.078125 -3 L 6.8125 -3.203125 C 6.671875 -2.421875 6.21875 -2.125 5.4375 -2.125 C 4.53125 -2.125 4.078125 -2.640625 4.078125 -3.78125 L 10.078125 -3.78125 L 10.078125 -4.1875 C 10.078125 -7.390625 8.109375 -9.125 5.28125 -9.125 Z M 4.078125 -5.53125 C 4.09375 -6.53125 4.546875 -7.0625 5.3125 -7.0625 C 6.171875 -7.0625 6.578125 -6.5625 6.578125 -5.53125 Z M 4.078125 -5.53125 "/></g></g></g><g fill="#000000" fill-opacity="1"><g transform="translate(106.995411, 23.800341)"><g><path d="M 0.890625 -12 L 0.890625 0 L 4.359375 0 L 4.359375 -12 Z M 0.890625 -12 "/></g></g></g><g fill="#000000" fill-opacity="1"><g transform="translate(111.545216, 23.800341)"><g><path d="M 5.265625 -9.125 C 2.4375 -9.125 0.34375 -7.25 0.34375 -4.390625 C 0.34375 -1.78125 2.421875 0.171875 5.265625 0.171875 C 8 0.171875 10.1875 -1.65625 10.1875 -4.390625 C 10.1875 -7.171875 8.171875 -9.125 5.265625 -9.125 Z M 4.0625 -4.5 C 4.0625 -5.375 4.078125 -6.9375 5.265625 -6.9375 C 6.015625 -6.9375 6.46875 -6.390625 6.46875 -4.578125 C 6.46875 -2.5625 6.15625 -1.9375 5.265625 -1.9375 C 4.34375 -1.9375 4.0625 -2.65625 4.0625 -4.5 Z M 4.0625 -4.5 "/></g></g></g><g fill="#000000" fill-opacity="1"><g transform="translate(121.344795, 23.800341)"><g><path d="M 6.546875 -9.125 C 5.125 -9.125 4.3125 -8.59375 4 -7.671875 L 3.96875 -7.671875 L 3.96875 -8.9375 L 0.75 -8.9375 L 0.75 2.8125 L 4.21875 2.8125 L 4.21875 -0.96875 C 4.78125 -0.171875 5.59375 0.171875 6.53125 0.171875 C 8.5 0.171875 9.90625 -1.5 9.90625 -4.5625 C 9.90625 -7.296875 8.640625 -9.125 6.546875 -9.125 Z M 6.296875 -4.40625 C 6.296875 -2.65625 6 -2.03125 5.1875 -2.03125 C 4.546875 -2.03125 4.234375 -2.5 4.234375 -3.453125 L 4.234375 -5.84375 C 4.234375 -6.546875 4.71875 -6.890625 5.203125 -6.890625 C 5.9375 -6.890625 6.296875 -6.25 6.296875 -4.40625 Z M 6.296875 -4.40625 "/></g></g></g><g fill="#000000" fill-opacity="1"><g transform="translate(130.794388, 23.800341)"><g><path d="M 5.28125 -9.125 C 2.453125 -9.125 0.4375 -7.1875 0.4375 -4.34375 C 0.4375 -1.890625 2.171875 0.171875 5.421875 0.171875 C 7.84375 0.171875 9.59375 -1 10.078125 -3 L 6.8125 -3.203125 C 6.671875 -2.421875 6.21875 -2.125 5.4375 -2.125 C 4.53125 -2.125 4.078125 -2.640625 4.078125 -3.78125 L 10.078125 -3.78125 L 10.078125 -4.1875 C 10.078125 -7.390625 8.109375 -9.125 5.28125 -9.125 Z M 4.078125 -5.53125 C 4.09375 -6.53125 4.546875 -7.0625 5.3125 -7.0625 C 6.171875 -7.0625 6.578125 -6.5625 6.578125 -5.53125 Z M 4.078125 -5.53125 "/></g></g></g><g fill="#000000" fill-opacity="1"><g transform="translate(140.593967, 23.800341)"><g><path d="M 5.890625 -9.125 C 4.703125 -9.125 4.03125 -8.5 3.6875 -7.109375 L 3.65625 -7.109375 L 3.65625 -8.9375 L 0.703125 -8.9375 L 0.703125 0 L 4.171875 0 L 4.171875 -4 C 4.171875 -5.625 4.65625 -6.03125 5.84375 -6.03125 C 6.0625 -6.03125 6.265625 -6 6.5 -5.953125 L 6.5 -9.078125 C 6.328125 -9.09375 6.0625 -9.125 5.890625 -9.125 Z M 5.890625 -9.125 "/></g></g></g><g fill="#000000" fill-opacity="1"><g transform="translate(146.543706, 23.800341)"><g/></g></g></svg>